<svg width="32" height="33" viewBox="0 0 32 33" fill="none" xmlns="http://www.w3.org/2000/svg">
    <mask id="path-1-inside-1_49_12505" fill="white">
        <path d="M1.21058 24.75C3.04043 27.9194 5.87205 30.3905 9.25995 31.7745C12.6478 33.1586 16.3997 33.377 19.9254 32.3955C23.451 31.4139 26.5502 29.2881 28.7355 26.3525C30.9208 23.4168 32.0681 19.838 31.9969 16.179C31.9257 12.52 30.64 8.98847 28.3422 6.14007C26.0444 3.29167 22.8648 1.28804 19.3036 0.444394C15.7425 -0.399249 12.0019 -0.0350205 8.67044 1.47978C5.33895 2.99457 2.60561 5.57397 0.900445 8.81215L8.02035 12.5614C8.89394 10.9024 10.2943 9.58089 12.0011 8.80483C13.7079 8.02877 15.6242 7.84217 17.4487 8.27438C19.2731 8.7066 20.9021 9.7331 22.0793 11.1924C23.2565 12.6517 23.9152 14.461 23.9517 16.3355C23.9882 18.2101 23.4004 20.0436 22.2808 21.5476C21.1613 23.0516 19.5734 24.1407 17.7672 24.6436C15.961 25.1464 14.0388 25.0345 12.3031 24.3255C10.5674 23.6164 9.11671 22.3504 8.17924 20.7266L1.21058 24.75Z" />
    </mask>
    <path d="M1.21058 24.75C3.04043 27.9194 5.87205 30.3905 9.25995 31.7745C12.6478 33.1586 16.3997 33.377 19.9254 32.3955C23.451 31.4139 26.5502 29.2881 28.7355 26.3525C30.9208 23.4168 32.0681 19.838 31.9969 16.179C31.9257 12.52 30.64 8.98847 28.3422 6.14007C26.0444 3.29167 22.8648 1.28804 19.3036 0.444394C15.7425 -0.399249 12.0019 -0.0350205 8.67044 1.47978C5.33895 2.99457 2.60561 5.57397 0.900445 8.81215L8.02035 12.5614C8.89394 10.9024 10.2943 9.58089 12.0011 8.80483C13.7079 8.02877 15.6242 7.84217 17.4487 8.27438C19.2731 8.7066 20.9021 9.7331 22.0793 11.1924C23.2565 12.6517 23.9152 14.461 23.9517 16.3355C23.9882 18.2101 23.4004 20.0436 22.2808 21.5476C21.1613 23.0516 19.5734 24.1407 17.7672 24.6436C15.961 25.1464 14.0388 25.0345 12.3031 24.3255C10.5674 23.6164 9.11671 22.3504 8.17924 20.7266L1.21058 24.75Z" stroke="#3E5DF6" stroke-width="4" mask="url(#path-1-inside-1_49_12505)" />
</svg>
    