<svg width="160" height="33" viewBox="0 0 160 33" fill="none" xmlns="http://www.w3.org/2000/svg">
    <path d="M16.6619 13.9347H13.4744C13.3835 13.4119 13.2159 12.9489 12.9716 12.5455C12.7273 12.1364 12.4233 11.7898 12.0597 11.5057C11.696 11.2216 11.2813 11.0085 10.8153 10.8665C10.3551 10.7188 9.85795 10.6449 9.32386 10.6449C8.375 10.6449 7.53409 10.8835 6.80114 11.3608C6.06818 11.8324 5.49432 12.5256 5.07955 13.4403C4.66477 14.3494 4.45739 15.4602 4.45739 16.7727C4.45739 18.108 4.66477 19.233 5.07955 20.1477C5.5 21.0568 6.07386 21.7443 6.80114 22.2102C7.53409 22.6705 8.37216 22.9006 9.31534 22.9006C9.83807 22.9006 10.3267 22.8324 10.7812 22.696C11.2415 22.554 11.6534 22.3466 12.017 22.0739C12.3864 21.8011 12.696 21.4659 12.946 21.0682C13.2017 20.6705 13.3778 20.2159 13.4744 19.7045L16.6619 19.7216C16.5426 20.5511 16.2841 21.3295 15.8864 22.0568C15.4943 22.7841 14.9801 23.4261 14.3438 23.983C13.7074 24.5341 12.9631 24.9659 12.1108 25.2784C11.2585 25.5852 10.3125 25.7386 9.27273 25.7386C7.73864 25.7386 6.36932 25.3835 5.16477 24.6733C3.96023 23.9631 3.01136 22.9375 2.31818 21.5966C1.625 20.2557 1.27841 18.6477 1.27841 16.7727C1.27841 14.892 1.62784 13.2841 2.3267 11.9489C3.02557 10.608 3.97727 9.58239 5.18182 8.87216C6.38636 8.16193 7.75 7.80682 9.27273 7.80682C10.2443 7.80682 11.1477 7.94318 11.983 8.21591C12.8182 8.48864 13.5625 8.8892 14.2159 9.41761C14.8693 9.94034 15.4063 10.5824 15.8267 11.3438C16.2528 12.0994 16.5313 12.9631 16.6619 13.9347ZM19.4212 25.5V12.4091H22.4126V14.5909H22.549C22.7876 13.8352 23.1967 13.2528 23.7763 12.8438C24.3615 12.429 25.0291 12.2216 25.7791 12.2216C25.9496 12.2216 26.1399 12.2301 26.3501 12.2472C26.5661 12.2585 26.745 12.2784 26.8871 12.3068V15.1449C26.7564 15.0994 26.549 15.0597 26.2649 15.0256C25.9865 14.9858 25.7166 14.9659 25.4553 14.9659C24.8928 14.9659 24.3871 15.0881 23.9382 15.3324C23.495 15.571 23.1456 15.9034 22.8899 16.3295C22.6342 16.7557 22.5064 17.2472 22.5064 17.804V25.5H19.4212ZM31.2528 30.4091C30.8324 30.4091 30.4432 30.375 30.0852 30.3068C29.733 30.2443 29.4517 30.1705 29.2415 30.0852L29.9574 27.6818C30.4063 27.8125 30.8068 27.875 31.1591 27.8693C31.5114 27.8636 31.821 27.7528 32.0881 27.5369C32.3608 27.3267 32.5909 26.9744 32.7784 26.4801L33.0426 25.7727L28.2955 12.4091H31.5682L34.5852 22.2955H34.7216L37.7472 12.4091H41.0284L35.7869 27.0852C35.5426 27.7784 35.2188 28.3722 34.8153 28.8665C34.4119 29.3665 33.9176 29.7472 33.3324 30.0085C32.7528 30.2756 32.0597 30.4091 31.2528 30.4091ZM43.1634 30.4091V12.4091H46.1974V14.5739H46.3764C46.5355 14.2557 46.7599 13.9176 47.0497 13.5597C47.3395 13.196 47.7315 12.8864 48.2259 12.6307C48.7202 12.3693 49.3509 12.2386 50.1179 12.2386C51.1293 12.2386 52.0412 12.4972 52.8537 13.0142C53.6719 13.5256 54.3196 14.2841 54.7969 15.2898C55.2798 16.2898 55.5213 17.517 55.5213 18.9716C55.5213 20.4091 55.2855 21.6307 54.8139 22.6364C54.3423 23.642 53.7003 24.4091 52.8878 24.9375C52.0753 25.4659 51.1548 25.7301 50.1264 25.7301C49.3764 25.7301 48.7543 25.6051 48.2599 25.3551C47.7656 25.1051 47.3679 24.804 47.0668 24.4517C46.7713 24.0937 46.5412 23.7557 46.3764 23.4375H46.2486V30.4091H43.1634ZM46.1889 18.9545C46.1889 19.8011 46.3082 20.5426 46.5469 21.179C46.7912 21.8153 47.1406 22.3125 47.5952 22.6705C48.0554 23.0227 48.6122 23.1989 49.2656 23.1989C49.9474 23.1989 50.5185 23.017 50.9787 22.6534C51.4389 22.2841 51.7855 21.7812 52.0185 21.1449C52.2571 20.5028 52.3764 19.7727 52.3764 18.9545C52.3764 18.142 52.2599 17.4205 52.027 16.7898C51.794 16.1591 51.4474 15.6648 50.9872 15.3068C50.527 14.9489 49.9531 14.7699 49.2656 14.7699C48.6065 14.7699 48.0469 14.9432 47.5866 15.2898C47.1264 15.6364 46.777 16.1222 46.5384 16.7472C46.3054 17.3722 46.1889 18.108 46.1889 18.9545ZM64.7003 12.4091V14.7955H57.1747V12.4091H64.7003ZM59.0327 9.27273H62.1179V21.5625C62.1179 21.9773 62.1804 22.2955 62.3054 22.517C62.4361 22.733 62.6065 22.8807 62.8168 22.9602C63.027 23.0398 63.2599 23.0795 63.5156 23.0795C63.7088 23.0795 63.8849 23.0653 64.044 23.0369C64.2088 23.0085 64.3338 22.983 64.419 22.9602L64.9389 25.3722C64.7741 25.429 64.5384 25.4915 64.2315 25.5597C63.9304 25.6278 63.5611 25.6676 63.1236 25.679C62.3509 25.7017 61.6548 25.5852 61.0355 25.3295C60.4162 25.0682 59.9247 24.6648 59.5611 24.1193C59.2031 23.5739 59.027 22.892 59.0327 22.0739V9.27273ZM72.8501 25.7557C71.5717 25.7557 70.4638 25.4744 69.5263 24.9119C68.5888 24.3494 67.8615 23.5625 67.3445 22.5511C66.8331 21.5398 66.5774 20.358 66.5774 19.0057C66.5774 17.6534 66.8331 16.4687 67.3445 15.4517C67.8615 14.4347 68.5888 13.6449 69.5263 13.0824C70.4638 12.5199 71.5717 12.2386 72.8501 12.2386C74.1286 12.2386 75.2365 12.5199 76.174 13.0824C77.1115 13.6449 77.8359 14.4347 78.3473 15.4517C78.8643 16.4687 79.1229 17.6534 79.1229 19.0057C79.1229 20.358 78.8643 21.5398 78.3473 22.5511C77.8359 23.5625 77.1115 24.3494 76.174 24.9119C75.2365 25.4744 74.1286 25.7557 72.8501 25.7557ZM72.8672 23.2841C73.5604 23.2841 74.1399 23.0937 74.6058 22.7131C75.0717 22.3267 75.4183 21.8097 75.6456 21.1619C75.8786 20.5142 75.995 19.7926 75.995 18.9972C75.995 18.196 75.8786 17.4716 75.6456 16.8239C75.4183 16.1705 75.0717 15.6506 74.6058 15.2642C74.1399 14.8778 73.5604 14.6847 72.8672 14.6847C72.157 14.6847 71.5661 14.8778 71.0945 15.2642C70.6286 15.6506 70.2791 16.1705 70.0462 16.8239C69.8189 17.4716 69.7053 18.196 69.7053 18.9972C69.7053 19.7926 69.8189 20.5142 70.0462 21.1619C70.2791 21.8097 70.6286 22.3267 71.0945 22.7131C71.5661 23.0937 72.157 23.2841 72.8672 23.2841ZM92.0881 15.8693L89.2756 16.1761C89.196 15.892 89.0568 15.625 88.858 15.375C88.6648 15.125 88.4034 14.9233 88.0739 14.7699C87.7443 14.6165 87.3409 14.5398 86.8636 14.5398C86.2216 14.5398 85.6818 14.679 85.2443 14.9574C84.8125 15.2358 84.5994 15.5966 84.6051 16.0398C84.5994 16.4205 84.7386 16.7301 85.0227 16.9688C85.3125 17.2074 85.7898 17.4034 86.4545 17.5568L88.6875 18.0341C89.9261 18.3011 90.8466 18.7244 91.4489 19.304C92.0568 19.8835 92.3636 20.642 92.3693 21.5795C92.3636 22.4034 92.1222 23.1307 91.6449 23.7614C91.1733 24.3864 90.517 24.875 89.6761 25.2273C88.8352 25.5795 87.8693 25.7557 86.7784 25.7557C85.1761 25.7557 83.8864 25.4205 82.9091 24.75C81.9318 24.0739 81.3494 23.1335 81.1619 21.929L84.1705 21.6392C84.3068 22.2301 84.5966 22.6761 85.0398 22.9773C85.483 23.2784 86.0597 23.429 86.7699 23.429C87.5028 23.429 88.0909 23.2784 88.5341 22.9773C88.983 22.6761 89.2074 22.304 89.2074 21.8608C89.2074 21.4858 89.0625 21.1761 88.7727 20.9318C88.4886 20.6875 88.0455 20.5 87.4432 20.3693L85.2102 19.9006C83.9545 19.6392 83.0256 19.1989 82.4233 18.5795C81.821 17.9545 81.5227 17.1648 81.5284 16.2102C81.5227 15.4034 81.7415 14.7045 82.1847 14.1136C82.6335 13.517 83.2557 13.0568 84.0511 12.733C84.8523 12.4034 85.7756 12.2386 86.821 12.2386C88.3551 12.2386 89.5625 12.5653 90.4432 13.2188C91.3295 13.8722 91.8778 14.7557 92.0881 15.8693ZM103.257 19.9943V12.4091H106.342V25.5H103.351V23.1733H103.214C102.919 23.9062 102.433 24.5057 101.757 24.9716C101.087 25.4375 100.26 25.6705 99.277 25.6705C98.419 25.6705 97.6605 25.4801 97.0014 25.0994C96.348 24.7131 95.8366 24.1534 95.4673 23.4205C95.098 22.6818 94.9134 21.7898 94.9134 20.7443V12.4091H97.9986V20.267C97.9986 21.0966 98.2259 21.7557 98.6804 22.2443C99.1349 22.733 99.7315 22.9773 100.47 22.9773C100.925 22.9773 101.365 22.8665 101.791 22.6449C102.217 22.4233 102.567 22.0938 102.839 21.6562C103.118 21.2131 103.257 20.6591 103.257 19.9943ZM109.515 30.4091V12.4091H112.549V14.5739H112.728C112.887 14.2557 113.112 13.9176 113.401 13.5597C113.691 13.196 114.083 12.8864 114.577 12.6307C115.072 12.3693 115.702 12.2386 116.469 12.2386C117.481 12.2386 118.393 12.4972 119.205 13.0142C120.023 13.5256 120.671 14.2841 121.148 15.2898C121.631 16.2898 121.873 17.517 121.873 18.9716C121.873 20.4091 121.637 21.6307 121.165 22.6364C120.694 23.642 120.052 24.4091 119.239 24.9375C118.427 25.4659 117.506 25.7301 116.478 25.7301C115.728 25.7301 115.106 25.6051 114.612 25.3551C114.117 25.1051 113.719 24.804 113.418 24.4517C113.123 24.0937 112.893 23.7557 112.728 23.4375H112.6V30.4091H109.515ZM112.54 18.9545C112.54 19.8011 112.66 20.5426 112.898 21.179C113.143 21.8153 113.492 22.3125 113.947 22.6705C114.407 23.0227 114.964 23.1989 115.617 23.1989C116.299 23.1989 116.87 23.017 117.33 22.6534C117.79 22.2841 118.137 21.7812 118.37 21.1449C118.609 20.5028 118.728 19.7727 118.728 18.9545C118.728 18.142 118.612 17.4205 118.379 16.7898C118.146 16.1591 117.799 15.6648 117.339 15.3068C116.879 14.9489 116.305 14.7699 115.617 14.7699C114.958 14.7699 114.398 14.9432 113.938 15.2898C113.478 15.6364 113.129 16.1222 112.89 16.7472C112.657 17.3722 112.54 18.108 112.54 18.9545Z" fill="#3E5DF6" />
    <mask id="path-2-inside-1_49_12503" fill="white">
        <path d="M129.211 24.75C131.04 27.9194 133.872 30.3905 137.26 31.7745C140.648 33.1586 144.4 33.377 147.925 32.3955C151.451 31.4139 154.55 29.2881 156.736 26.3525C158.921 23.4168 160.068 19.838 159.997 16.179C159.926 12.52 158.64 8.98847 156.342 6.14007C154.044 3.29167 150.865 1.28804 147.304 0.444394C143.742 -0.399249 140.002 -0.0350205 136.67 1.47978C133.339 2.99457 130.606 5.57397 128.9 8.81215L136.02 12.5614C136.894 10.9024 138.294 9.58089 140.001 8.80483C141.708 8.02877 143.624 7.84217 145.449 8.27438C147.273 8.7066 148.902 9.7331 150.079 11.1924C151.257 12.6517 151.915 14.461 151.952 16.3355C151.988 18.2101 151.4 20.0436 150.281 21.5476C149.161 23.0516 147.573 24.1407 145.767 24.6436C143.961 25.1464 142.039 25.0345 140.303 24.3255C138.567 23.6164 137.117 22.3504 136.179 20.7266L129.211 24.75Z" />
    </mask>
    <path d="M129.211 24.75C131.04 27.9194 133.872 30.3905 137.26 31.7745C140.648 33.1586 144.4 33.377 147.925 32.3955C151.451 31.4139 154.55 29.2881 156.736 26.3525C158.921 23.4168 160.068 19.838 159.997 16.179C159.926 12.52 158.64 8.98847 156.342 6.14007C154.044 3.29167 150.865 1.28804 147.304 0.444394C143.742 -0.399249 140.002 -0.0350205 136.67 1.47978C133.339 2.99457 130.606 5.57397 128.9 8.81215L136.02 12.5614C136.894 10.9024 138.294 9.58089 140.001 8.80483C141.708 8.02877 143.624 7.84217 145.449 8.27438C147.273 8.7066 148.902 9.7331 150.079 11.1924C151.257 12.6517 151.915 14.461 151.952 16.3355C151.988 18.2101 151.4 20.0436 150.281 21.5476C149.161 23.0516 147.573 24.1407 145.767 24.6436C143.961 25.1464 142.039 25.0345 140.303 24.3255C138.567 23.6164 137.117 22.3504 136.179 20.7266L129.211 24.75Z" stroke="#3E5DF6" stroke-width="4" mask="url(#path-2-inside-1_49_12503)" />
</svg>
    